<svg xmlns:rdf="http://www.w3.org/1999/02/22-rdf-syntax-ns#" xmlns="http://www.w3.org/2000/svg" xml:space="preserve" height="82.90873" width="300" version="1.1" xmlns:cc="http://creativecommons.org/ns#" xmlns:dc="http://purl.org/dc/elements/1.1/"><metadata><rdf:RDF><cc:Work rdf:about=""><dc:format>image/svg+xml</dc:format><dc:type rdf:resource="http://purl.org/dc/dcmitype/StillImage"/><dc:title/></cc:Work></rdf:RDF></metadata><defs><clipPath id="clipPath16" clipPathUnits="userSpaceOnUse"><path d="m0.014999,26.299,98.651,0,0-26.299-98.651,0,0,26.299z"/></clipPath></defs><g transform="matrix(1.25,0,0,-1.25,1.9812512,80.908729)"><g transform="matrix(2.4003568,0,0,2.4003568,-0.02100395,0)"><g clip-path="url(#clipPath16)"><g transform="translate(7.271,19.078)"><path fill-rule="nonzero" fill="#0c2850" d="M0,0-1.6196-0.864-1.7275,0.468-0.0357,0.648,0,0zm-4.1392-3.996c0.0362-0.467-0.0361-1.188-0.2881-1.547l-0.7558,0.288c0.2519,0.359,0.396,0.863,0.396,1.295l0.6479-0.036zm15.0102-7.955c2.087,8.603-0.36,15.443-7.019,16.235,0.036-0.361,0.036-0.648,0.036-0.936,0-0.432-0.036-0.792-0.036-0.792l-1.044,0.18c0.036,0.36,0.108,2.807-0.7563,3.347,0,0,0-1.295-0.2875-2.591l-0.9722,0.179c0,0.9-0.396,1.26-0.9356,1.512l0.252-1.764-0.6123-0.899,0.2881-0.828-1.9077-0.648-0.5401-1.548-3.3476-4.607,1.2602-1.512,1.4038,1.187,0.3238-0.215v-1.764h0.7558c0.3242,1.26,1.3677,2.736,2.3399,3.455l-0.5401,0.648,0.792,0.685,0.7559-0.937,2.6999,0.037c0.396,0.863,0.648,1.907,0.648,3.131h1.044c0-4.104-2.052-5.723-4.6077-8.243-0.9361-0.9357-1.7642-1.944-1.8721-3.312h11.8788zm2.591-1.007-16.9894,0,0,1.043,1.44,0c0.252,3.384,3.4912,4.644,5.2914,7.379h-2.0878c-1.0078-0.36-2.52-2.591-2.52-3.887h-2.6274l0.0361,1.08-0.8643-0.72-2.3037,2.664s-0.1079,0.144-0.1079,0.252c0,0.107,0.0361,0.18,0.0361,0.18l3.6358,4.931,0.6474,1.944,0.9722,0.36,1.0078,1.403-0.3599,2.448c0.9717,0.36,1.9078,0.036,2.3755-0.431,0.0362,0.719-0.0356,1.511-0.0356,1.511,1.7277,0.18,2.3397-0.756,2.6277-1.8,0.467-0.036,0.9-0.107,1.296-0.18,0.071,0.216,0.288,0.396,0.54,0.396,0.323,0,0.539-0.252,0.539-0.54v-0.144c0.757-0.252,1.476-0.612,2.124-1.008,0.108,0.144,0.252,0.217,0.432,0.217,0.324,0,0.54-0.252,0.54-0.54,0-0.144-0.036-0.252-0.108-0.325,0.612-0.504,1.116-1.115,1.584-1.763,0.072,0.036,0.18,0.072,0.252,0.072,0.324,0,0.576-0.252,0.576-0.54,0-0.216-0.108-0.396-0.288-0.468,0.36-0.648,0.647-1.368,0.864-2.124,0.036,0.036,0.108,0.036,0.144,0.036,0.324,0,0.539-0.252,0.539-0.54s-0.179-0.504-0.395-0.54c0.143-0.756,0.252-1.512,0.324-2.304,0.323,0,0.575-0.251,0.575-0.54,0-0.323-0.252-0.539-0.539-0.575,0-0.756-0.036-1.584-0.108-2.376,0.287-0.036,0.504-0.288,0.504-0.576s-0.252-0.5399-0.576-0.5399h-0.037c-0.143-0.7921-0.287-1.5831-0.467-2.4121h1.511v-1.043"/></g></g><path fill-rule="nonzero" fill="#f36717" d="m3.7437,0.792,16.99,0,0,2.0879-16.99,0,0-2.0879z"/><g transform="translate(97.371,12.958)"><path fill-rule="nonzero" fill="#0c2850" d="m0,0c-0.252,0.252-0.576,0.36-0.864,0.36-0.468,0-1.08-0.54-1.475-1.656v-3.3476c0-1.2236,0.143-1.332,1.691-1.4399v-0.7197h-4.931v0.7197c1.26,0.1079,1.368,0.2163,1.368,1.4399v4.0676c0,1.224-0.072,1.224-1.224,1.44v0.612c1.152,0.216,2.16,0.432,3.096,0.792v-2.16h0.035c0.612,1.188,1.512,2.123,2.376,2.123,0.684,0,1.224-0.539,1.224-1.115,0-0.828-0.9-1.548-1.296-1.116zm-10.367,1.332c-0.827,0-1.692-0.9-1.907-2.448l3.095,0.072c0.396,0,0.468,0.108,0.468,0.468,0,0.972-0.684,1.908-1.656,1.908zm3.06-3.132c-0.324-0.036-2.808-0.216-5.075-0.288,0.071-2.3754,1.475-3.3832,2.88-3.3832,0.791,0,1.367,0.2158,2.087,0.9355l0.468-0.6479c-1.188-1.4756-2.592-1.8355-3.24-1.8355-2.555,0-4.031,1.9434-4.031,4.2471,0,2.808,2.124,5.003,4.247,5.003,1.764,0,3.168-1.511,3.168-3.203,0-0.54-0.108-0.756-0.504-0.828zm-12.706,3.168c-0.756,0-1.62-0.792-1.62-2.304s0.792-2.5919,1.872-2.5919c0.791,0,1.548,0.6839,1.548,2.3399,0,1.404-0.685,2.556-1.8,2.556zm2.303-9.2513c-0.503,0.1802-1.188,0.2163-2.303,0.2163-1.548,0-2.232-1.1519-2.232-2.0161,0-1.2239,1.08-2.1599,2.7-2.1599,1.799,0,2.807,1.188,2.807,2.3762,0,0.7558-0.432,1.3677-0.972,1.5835zm2.844,9.6473c-0.144-0.324-0.54-0.936-0.864-1.116l-1.044,0.108c0.288-0.396,0.504-1.188,0.504-1.8,0-2.1958-1.98-3.3838-3.779-3.3838-0.108,0-0.396,0.0362-0.648,0.0362-0.432-0.1441-0.792-0.648-0.792-0.9717,0-0.3242,0.324-0.7202,1.188-0.7202h2.159c1.26,0,2.952-0.6118,2.952-2.6275,0-2.304-2.412-4.247-5.219-4.247-2.448,0-3.744,1.511-3.744,2.735,0,0.7918,0.396,1.4041,2.088,2.7-0.612,0.2159-1.692,0.8277-1.62,1.9795,0.828,0.3599,1.584,1.0078,1.908,1.4038-0.972,0.3242-1.872,1.4757-1.872,2.7717,0,2.34,2.088,3.599,3.816,3.599,0.755,0,1.476-0.179,2.087-0.504,0.936,0.037,1.872,0.145,2.736,0.252l0.144-0.215zm-10.258-8.5672-4.248,0,0,0.7197c1.008,0.1079,1.152,0.2163,1.152,1.3681v3.5274c0,1.296-0.576,2.088-1.656,2.088-0.684,0-1.476-0.504-2.016-1.008v-4.6074c0-1.1518,0.108-1.2602,1.116-1.3681v-0.7197h-4.392v0.7197c1.224,0.1079,1.404,0.2163,1.404,1.3681v4.1394c0,1.224-0.071,1.296-1.152,1.44v0.612c1.081,0.216,2.088,0.432,3.024,0.792v-1.44c0.468,0.396,1.836,1.403,2.88,1.403,1.619,0,2.627-1.115,2.627-2.771v-4.1754c0-1.1518,0.18-1.2602,1.261-1.3681v-0.7197zm-13.391,10.9782c-0.684,0-1.224,0.54-1.224,1.224,0,0.72,0.54,1.26,1.224,1.26,0.72,0,1.26-0.54,1.26-1.26,0-0.684-0.54-1.224-1.26-1.224zm2.376-10.9782-4.608,0,0,0.7197c1.224,0.1079,1.404,0.2163,1.404,1.5117v3.8878c0,1.404-0.108,1.404-1.296,1.548v0.612c1.116,0.216,2.232,0.468,3.132,0.792v-6.8398c0-1.2954,0.108-1.4038,1.368-1.5117v-0.7197zm-6.876,6.8032c-0.216,0.288-0.504,0.36-0.863,0.36-0.468,0-1.044-0.54-1.44-1.656v-3.3476c0-1.2236,0.144-1.332,1.691-1.4399v-0.7197h-4.895v0.7197c1.224,0.1079,1.368,0.2163,1.368,1.4399v4.0676c0,1.224-0.108,1.224-1.224,1.44v0.612c1.08,0.216,2.124,0.432,3.06,0.792v-2.16h0.036c0.648,1.188,1.548,2.123,2.375,2.123,0.72,0,1.224-0.539,1.224-1.115,0-0.828-0.863-1.548-1.332-1.116zm-11.23,0.9c-0.576,0-1.332-0.396-1.8-0.684v-5.3273c0.396-0.4322,1.044-0.7559,1.836-0.7559,1.044,0,2.412,0.7915,2.412,3.4912,0,2.268-1.08,3.276-2.448,3.276zm-0.468-7.8834c-0.576,0.0361-1.044,0.144-1.332,0.2519v-3.3835c0-1.224,0.144-1.332,1.8-1.476v-0.683h-5.075v0.683c1.296,0.144,1.403,0.252,1.403,1.476v9.611c0,1.26-0.036,1.296-1.259,1.404v0.612c1.079,0.215,2.087,0.54,3.131,0.9v-1.368l1.944,1.008c0.252,0.144,0.504,0.179,0.756,0.179,2.232,0,3.491-1.943,3.491-3.815,0-3.0234-2.159-5.0752-4.859-5.3994zm-10.259-0.1441c-1.367,0-2.447,0.3243-3.491,0.792-0.216,0.9361-0.289,2.1958-0.36,3.4915l0.828,0.144c0.468-1.7634,1.116-3.4914,3.275-3.4914,1.512,0,2.412,0.936,2.412,2.3398,0,3.7076-6.155,2.8796-6.155,7.1636,0,1.943,1.584,3.707,4.391,3.707,0.936,0,1.944-0.252,2.952-0.612,0.072-0.756,0.144-1.62,0.18-3.132l-0.756-0.036c-0.36,1.26-0.936,2.808-2.772,2.808-1.367,0-2.052-0.936-2.052-2.051,0-3.42,6.264-2.7,6.264-7.1635,0-2.124-1.908-3.96-4.716-3.96"/></g></g></g></svg>